<svg width="366" height="65" viewBox="0 0 366 65" fill="none" xmlns="http://www.w3.org/2000/svg">
<g filter="url(#filter0_d_7039_23277)">
<rect x="8" y="8" width="350" height="49" rx="15" fill="black" fill-opacity="0.1" shape-rendering="crispEdges"/>
<path d="M37 42.5H27C23 42.5 22 41.5 22 37.5V35.5C22 31.5 23 30.5 27 30.5H37C41 30.5 42 31.5 42 35.5V37.5C42 41.5 41 42.5 37 42.5Z" stroke="white" stroke-width="1.5" stroke-linecap="round" stroke-linejoin="round"/>
<path d="M26 30.5V28.5C26 25.19 27 22.5 32 22.5C36.5 22.5 38 24.5 38 27.5" stroke="white" stroke-width="1.5" stroke-linecap="round" stroke-linejoin="round"/>
<path d="M32 39C33.3807 39 34.5 37.8807 34.5 36.5C34.5 35.1193 33.3807 34 32 34C30.6193 34 29.5 35.1193 29.5 36.5C29.5 37.8807 30.6193 39 32 39Z" stroke="white" stroke-width="1.5" stroke-linecap="round" stroke-linejoin="round"/>
<path d="M66.16 32.356H70.6V33.112H66.16V32.356ZM66.256 36.232H71.308V37H65.368V28.6H71.128V29.368H66.256V36.232ZM76.4313 30.64C76.9433 30.64 77.3913 30.74 77.7753 30.94C78.1673 31.132 78.4713 31.428 78.6873 31.828C78.9113 32.228 79.0233 32.732 79.0233 33.34V37H78.1713V33.424C78.1713 32.76 78.0033 32.26 77.6673 31.924C77.3393 31.58 76.8753 31.408 76.2753 31.408C75.8273 31.408 75.4353 31.5 75.0993 31.684C74.7713 31.86 74.5153 32.12 74.3313 32.464C74.1553 32.8 74.0673 33.208 74.0673 33.688V37H73.2153V30.7H74.0313V32.428L73.8993 32.104C74.0993 31.648 74.4193 31.292 74.8593 31.036C75.2993 30.772 75.8233 30.64 76.4313 30.64ZM83.3167 37.06C82.7247 37.06 82.2687 36.9 81.9487 36.58C81.6287 36.26 81.4687 35.808 81.4687 35.224V29.308H82.3207V35.176C82.3207 35.544 82.4127 35.828 82.5967 36.028C82.7887 36.228 83.0607 36.328 83.4127 36.328C83.7887 36.328 84.1007 36.22 84.3487 36.004L84.6487 36.616C84.4807 36.768 84.2767 36.88 84.0367 36.952C83.8047 37.024 83.5647 37.06 83.3167 37.06ZM80.3407 31.408V30.7H84.2407V31.408H80.3407ZM88.6531 37.06C87.9971 37.06 87.4211 36.924 86.9251 36.652C86.4291 36.372 86.0411 35.992 85.7611 35.512C85.4811 35.024 85.3411 34.468 85.3411 33.844C85.3411 33.22 85.4731 32.668 85.7371 32.188C86.0091 31.708 86.3771 31.332 86.8411 31.06C87.3131 30.78 87.8411 30.64 88.4251 30.64C89.0171 30.64 89.5411 30.776 89.9971 31.048C90.4611 31.312 90.8251 31.688 91.0891 32.176C91.3531 32.656 91.4851 33.212 91.4851 33.844C91.4851 33.884 91.4811 33.928 91.4731 33.976C91.4731 34.016 91.4731 34.06 91.4731 34.108H85.9891V33.472H91.0171L90.6811 33.724C90.6811 33.268 90.5811 32.864 90.3811 32.512C90.1891 32.152 89.9251 31.872 89.5891 31.672C89.2531 31.472 88.8651 31.372 88.4251 31.372C87.9931 31.372 87.6051 31.472 87.2611 31.672C86.9171 31.872 86.6491 32.152 86.4571 32.512C86.2651 32.872 86.1691 33.284 86.1691 33.748V33.88C86.1691 34.36 86.2731 34.784 86.4811 35.152C86.6971 35.512 86.9931 35.796 87.3691 36.004C87.7531 36.204 88.1891 36.304 88.6771 36.304C89.0611 36.304 89.4171 36.236 89.7451 36.1C90.0811 35.964 90.3691 35.756 90.6091 35.476L91.0891 36.028C90.8091 36.364 90.4571 36.62 90.0331 36.796C89.6171 36.972 89.1571 37.06 88.6531 37.06ZM93.2193 37V30.7H94.0353V32.416L93.9513 32.116C94.1273 31.636 94.4233 31.272 94.8393 31.024C95.2553 30.768 95.7713 30.64 96.3873 30.64V31.468C96.3553 31.468 96.3233 31.468 96.2913 31.468C96.2593 31.46 96.2273 31.456 96.1953 31.456C95.5312 31.456 95.0113 31.66 94.6353 32.068C94.2593 32.468 94.0713 33.04 94.0713 33.784V37H93.2193ZM103.168 37.06C102.576 37.06 102.12 36.9 101.8 36.58C101.48 36.26 101.32 35.808 101.32 35.224V29.308H102.172V35.176C102.172 35.544 102.264 35.828 102.448 36.028C102.64 36.228 102.912 36.328 103.264 36.328C103.64 36.328 103.952 36.22 104.2 36.004L104.5 36.616C104.332 36.768 104.128 36.88 103.888 36.952C103.656 37.024 103.416 37.06 103.168 37.06ZM100.192 31.408V30.7H104.092V31.408H100.192ZM109.267 30.64C109.779 30.64 110.227 30.74 110.611 30.94C111.003 31.132 111.307 31.428 111.523 31.828C111.747 32.228 111.859 32.732 111.859 33.34V37H111.007V33.424C111.007 32.76 110.839 32.26 110.503 31.924C110.175 31.58 109.711 31.408 109.111 31.408C108.663 31.408 108.271 31.5 107.935 31.684C107.607 31.86 107.351 32.12 107.167 32.464C106.991 32.8 106.903 33.208 106.903 33.688V37H106.051V28.096H106.903V32.428L106.735 32.104C106.935 31.648 107.255 31.292 107.695 31.036C108.135 30.772 108.659 30.64 109.267 30.64ZM116.837 37.06C116.181 37.06 115.605 36.924 115.109 36.652C114.613 36.372 114.225 35.992 113.945 35.512C113.665 35.024 113.525 34.468 113.525 33.844C113.525 33.22 113.657 32.668 113.921 32.188C114.193 31.708 114.561 31.332 115.025 31.06C115.497 30.78 116.025 30.64 116.609 30.64C117.201 30.64 117.725 30.776 118.181 31.048C118.645 31.312 119.009 31.688 119.273 32.176C119.537 32.656 119.669 33.212 119.669 33.844C119.669 33.884 119.665 33.928 119.657 33.976C119.657 34.016 119.657 34.06 119.657 34.108H114.173V33.472H119.201L118.865 33.724C118.865 33.268 118.765 32.864 118.565 32.512C118.373 32.152 118.109 31.872 117.773 31.672C117.437 31.472 117.049 31.372 116.609 31.372C116.177 31.372 115.789 31.472 115.445 31.672C115.101 31.872 114.833 32.152 114.641 32.512C114.449 32.872 114.353 33.284 114.353 33.748V33.88C114.353 34.36 114.457 34.784 114.665 35.152C114.881 35.512 115.177 35.796 115.553 36.004C115.937 36.204 116.373 36.304 116.861 36.304C117.245 36.304 117.601 36.236 117.929 36.1C118.265 35.964 118.553 35.756 118.793 35.476L119.273 36.028C118.993 36.364 118.641 36.62 118.217 36.796C117.801 36.972 117.341 37.06 116.837 37.06ZM127.159 37.06C126.535 37.06 125.975 36.924 125.479 36.652C124.991 36.372 124.607 35.992 124.327 35.512C124.047 35.024 123.907 34.468 123.907 33.844C123.907 33.212 124.047 32.656 124.327 32.176C124.607 31.696 124.991 31.32 125.479 31.048C125.975 30.776 126.535 30.64 127.159 30.64C127.695 30.64 128.179 30.744 128.611 30.952C129.043 31.16 129.383 31.472 129.631 31.888L128.995 32.32C128.779 32 128.511 31.764 128.191 31.612C127.871 31.46 127.523 31.384 127.147 31.384C126.699 31.384 126.295 31.488 125.935 31.696C125.575 31.896 125.291 32.18 125.083 32.548C124.875 32.916 124.771 33.348 124.771 33.844C124.771 34.34 124.875 34.772 125.083 35.14C125.291 35.508 125.575 35.796 125.935 36.004C126.295 36.204 126.699 36.304 127.147 36.304C127.523 36.304 127.871 36.228 128.191 36.076C128.511 35.924 128.779 35.692 128.995 35.38L129.631 35.812C129.383 36.22 129.043 36.532 128.611 36.748C128.179 36.956 127.695 37.06 127.159 37.06ZM133.768 37.06C133.16 37.06 132.612 36.924 132.124 36.652C131.644 36.372 131.264 35.992 130.984 35.512C130.704 35.024 130.564 34.468 130.564 33.844C130.564 33.212 130.704 32.656 130.984 32.176C131.264 31.696 131.644 31.32 132.124 31.048C132.604 30.776 133.152 30.64 133.768 30.64C134.392 30.64 134.944 30.776 135.424 31.048C135.912 31.32 136.292 31.696 136.564 32.176C136.844 32.656 136.984 33.212 136.984 33.844C136.984 34.468 136.844 35.024 136.564 35.512C136.292 35.992 135.912 36.372 135.424 36.652C134.936 36.924 134.384 37.06 133.768 37.06ZM133.768 36.304C134.224 36.304 134.628 36.204 134.98 36.004C135.332 35.796 135.608 35.508 135.808 35.14C136.016 34.764 136.12 34.332 136.12 33.844C136.12 33.348 136.016 32.916 135.808 32.548C135.608 32.18 135.332 31.896 134.98 31.696C134.628 31.488 134.228 31.384 133.78 31.384C133.332 31.384 132.932 31.488 132.58 31.696C132.228 31.896 131.948 32.18 131.74 32.548C131.532 32.916 131.428 33.348 131.428 33.844C131.428 34.332 131.532 34.764 131.74 35.14C131.948 35.508 132.228 35.796 132.58 36.004C132.932 36.204 133.328 36.304 133.768 36.304ZM141.231 37.06C140.631 37.06 140.091 36.924 139.611 36.652C139.139 36.38 138.767 36.004 138.495 35.524C138.223 35.036 138.087 34.476 138.087 33.844C138.087 33.204 138.223 32.644 138.495 32.164C138.767 31.684 139.139 31.312 139.611 31.048C140.091 30.776 140.631 30.64 141.231 30.64C141.783 30.64 142.275 30.764 142.707 31.012C143.147 31.26 143.495 31.624 143.751 32.104C144.015 32.576 144.147 33.156 144.147 33.844C144.147 34.524 144.019 35.104 143.763 35.584C143.507 36.064 143.159 36.432 142.719 36.688C142.287 36.936 141.791 37.06 141.231 37.06ZM141.291 36.304C141.739 36.304 142.139 36.204 142.491 36.004C142.851 35.796 143.131 35.508 143.331 35.14C143.539 34.764 143.643 34.332 143.643 33.844C143.643 33.348 143.539 32.916 143.331 32.548C143.131 32.18 142.851 31.896 142.491 31.696C142.139 31.488 141.739 31.384 141.291 31.384C140.851 31.384 140.455 31.488 140.103 31.696C139.751 31.896 139.471 32.18 139.263 32.548C139.055 32.916 138.951 33.348 138.951 33.844C138.951 34.332 139.055 34.764 139.263 35.14C139.471 35.508 139.751 35.796 140.103 36.004C140.455 36.204 140.851 36.304 141.291 36.304ZM143.667 37V35.104L143.751 33.832L143.631 32.56V28.096H144.483V37H143.667ZM149.532 37.06C148.876 37.06 148.3 36.924 147.804 36.652C147.308 36.372 146.92 35.992 146.64 35.512C146.36 35.024 146.22 34.468 146.22 33.844C146.22 33.22 146.352 32.668 146.616 32.188C146.888 31.708 147.256 31.332 147.72 31.06C148.192 30.78 148.72 30.64 149.304 30.64C149.896 30.64 150.42 30.776 150.876 31.048C151.34 31.312 151.704 31.688 151.968 32.176C152.232 32.656 152.364 33.212 152.364 33.844C152.364 33.884 152.36 33.928 152.352 33.976C152.352 34.016 152.352 34.06 152.352 34.108H146.868V33.472H151.896L151.56 33.724C151.56 33.268 151.46 32.864 151.26 32.512C151.068 32.152 150.804 31.872 150.468 31.672C150.132 31.472 149.744 31.372 149.304 31.372C148.872 31.372 148.484 31.472 148.14 31.672C147.796 31.872 147.528 32.152 147.336 32.512C147.144 32.872 147.048 33.284 147.048 33.748V33.88C147.048 34.36 147.152 34.784 147.36 35.152C147.576 35.512 147.872 35.796 148.248 36.004C148.632 36.204 149.068 36.304 149.556 36.304C149.94 36.304 150.296 36.236 150.624 36.1C150.96 35.964 151.248 35.756 151.488 35.476L151.968 36.028C151.688 36.364 151.336 36.62 150.912 36.796C150.496 36.972 150.036 37.06 149.532 37.06ZM157.239 37V30.7H158.055V32.416L157.971 32.116C158.147 31.636 158.443 31.272 158.859 31.024C159.275 30.768 159.791 30.64 160.407 30.64V31.468C160.375 31.468 160.343 31.468 160.311 31.468C160.279 31.46 160.247 31.456 160.215 31.456C159.551 31.456 159.031 31.66 158.655 32.068C158.279 32.468 158.091 33.04 158.091 33.784V37H157.239ZM164.579 37.06C163.923 37.06 163.347 36.924 162.851 36.652C162.355 36.372 161.967 35.992 161.687 35.512C161.407 35.024 161.267 34.468 161.267 33.844C161.267 33.22 161.399 32.668 161.663 32.188C161.935 31.708 162.303 31.332 162.767 31.06C163.239 30.78 163.767 30.64 164.351 30.64C164.943 30.64 165.467 30.776 165.923 31.048C166.387 31.312 166.751 31.688 167.015 32.176C167.279 32.656 167.411 33.212 167.411 33.844C167.411 33.884 167.407 33.928 167.399 33.976C167.399 34.016 167.399 34.06 167.399 34.108H161.915V33.472H166.943L166.607 33.724C166.607 33.268 166.507 32.864 166.307 32.512C166.115 32.152 165.851 31.872 165.515 31.672C165.179 31.472 164.791 31.372 164.351 31.372C163.919 31.372 163.531 31.472 163.187 31.672C162.843 31.872 162.575 32.152 162.383 32.512C162.191 32.872 162.095 33.284 162.095 33.748V33.88C162.095 34.36 162.199 34.784 162.407 35.152C162.623 35.512 162.919 35.796 163.295 36.004C163.679 36.204 164.115 36.304 164.603 36.304C164.987 36.304 165.343 36.236 165.671 36.1C166.007 35.964 166.295 35.756 166.535 35.476L167.015 36.028C166.735 36.364 166.383 36.62 165.959 36.796C165.543 36.972 165.083 37.06 164.579 37.06ZM171.761 37.06C171.137 37.06 170.577 36.924 170.081 36.652C169.593 36.372 169.209 35.992 168.929 35.512C168.649 35.024 168.509 34.468 168.509 33.844C168.509 33.212 168.649 32.656 168.929 32.176C169.209 31.696 169.593 31.32 170.081 31.048C170.577 30.776 171.137 30.64 171.761 30.64C172.297 30.64 172.781 30.744 173.213 30.952C173.645 31.16 173.985 31.472 174.233 31.888L173.597 32.32C173.381 32 173.113 31.764 172.793 31.612C172.473 31.46 172.125 31.384 171.749 31.384C171.301 31.384 170.897 31.488 170.537 31.696C170.177 31.896 169.893 32.18 169.685 32.548C169.477 32.916 169.373 33.348 169.373 33.844C169.373 34.34 169.477 34.772 169.685 35.14C169.893 35.508 170.177 35.796 170.537 36.004C170.897 36.204 171.301 36.304 171.749 36.304C172.125 36.304 172.473 36.228 172.793 36.076C173.113 35.924 173.381 35.692 173.597 35.38L174.233 35.812C173.985 36.22 173.645 36.532 173.213 36.748C172.781 36.956 172.297 37.06 171.761 37.06ZM178.477 37.06C177.821 37.06 177.245 36.924 176.749 36.652C176.253 36.372 175.865 35.992 175.585 35.512C175.305 35.024 175.165 34.468 175.165 33.844C175.165 33.22 175.297 32.668 175.561 32.188C175.833 31.708 176.201 31.332 176.665 31.06C177.137 30.78 177.665 30.64 178.249 30.64C178.841 30.64 179.365 30.776 179.821 31.048C180.285 31.312 180.649 31.688 180.913 32.176C181.177 32.656 181.309 33.212 181.309 33.844C181.309 33.884 181.305 33.928 181.297 33.976C181.297 34.016 181.297 34.06 181.297 34.108H175.813V33.472H180.841L180.505 33.724C180.505 33.268 180.405 32.864 180.205 32.512C180.013 32.152 179.749 31.872 179.413 31.672C179.077 31.472 178.689 31.372 178.249 31.372C177.817 31.372 177.429 31.472 177.085 31.672C176.741 31.872 176.473 32.152 176.281 32.512C176.089 32.872 175.993 33.284 175.993 33.748V33.88C175.993 34.36 176.097 34.784 176.305 35.152C176.521 35.512 176.817 35.796 177.193 36.004C177.577 36.204 178.013 36.304 178.501 36.304C178.885 36.304 179.241 36.236 179.569 36.1C179.905 35.964 180.193 35.756 180.433 35.476L180.913 36.028C180.633 36.364 180.281 36.62 179.857 36.796C179.441 36.972 178.981 37.06 178.477 37.06ZM183.043 37V30.7H183.895V37H183.043ZM183.475 29.308C183.299 29.308 183.151 29.248 183.031 29.128C182.911 29.008 182.851 28.864 182.851 28.696C182.851 28.528 182.911 28.388 183.031 28.276C183.151 28.156 183.299 28.096 183.475 28.096C183.651 28.096 183.799 28.152 183.919 28.264C184.039 28.376 184.099 28.516 184.099 28.684C184.099 28.86 184.039 29.008 183.919 29.128C183.807 29.248 183.659 29.308 183.475 29.308ZM187.886 37L185.09 30.7H185.978L188.546 36.544H188.126L190.73 30.7H191.57L188.762 37H187.886ZM195.27 37.06C194.614 37.06 194.038 36.924 193.542 36.652C193.046 36.372 192.658 35.992 192.378 35.512C192.098 35.024 191.958 34.468 191.958 33.844C191.958 33.22 192.09 32.668 192.354 32.188C192.626 31.708 192.994 31.332 193.458 31.06C193.93 30.78 194.458 30.64 195.042 30.64C195.634 30.64 196.158 30.776 196.614 31.048C197.078 31.312 197.442 31.688 197.706 32.176C197.97 32.656 198.102 33.212 198.102 33.844C198.102 33.884 198.098 33.928 198.09 33.976C198.09 34.016 198.09 34.06 198.09 34.108H192.606V33.472H197.634L197.298 33.724C197.298 33.268 197.198 32.864 196.998 32.512C196.806 32.152 196.542 31.872 196.206 31.672C195.87 31.472 195.482 31.372 195.042 31.372C194.61 31.372 194.222 31.472 193.878 31.672C193.534 31.872 193.266 32.152 193.074 32.512C192.882 32.872 192.786 33.284 192.786 33.748V33.88C192.786 34.36 192.89 34.784 193.098 35.152C193.314 35.512 193.61 35.796 193.986 36.004C194.37 36.204 194.806 36.304 195.294 36.304C195.678 36.304 196.034 36.236 196.362 36.1C196.698 35.964 196.986 35.756 197.226 35.476L197.706 36.028C197.426 36.364 197.074 36.62 196.65 36.796C196.234 36.972 195.774 37.06 195.27 37.06ZM202.344 37.06C201.744 37.06 201.204 36.924 200.724 36.652C200.252 36.38 199.88 36.004 199.608 35.524C199.336 35.036 199.2 34.476 199.2 33.844C199.2 33.204 199.336 32.644 199.608 32.164C199.88 31.684 200.252 31.312 200.724 31.048C201.204 30.776 201.744 30.64 202.344 30.64C202.896 30.64 203.388 30.764 203.82 31.012C204.26 31.26 204.608 31.624 204.864 32.104C205.128 32.576 205.26 33.156 205.26 33.844C205.26 34.524 205.132 35.104 204.876 35.584C204.62 36.064 204.272 36.432 203.832 36.688C203.4 36.936 202.904 37.06 202.344 37.06ZM202.404 36.304C202.852 36.304 203.252 36.204 203.604 36.004C203.964 35.796 204.244 35.508 204.444 35.14C204.652 34.764 204.756 34.332 204.756 33.844C204.756 33.348 204.652 32.916 204.444 32.548C204.244 32.18 203.964 31.896 203.604 31.696C203.252 31.488 202.852 31.384 202.404 31.384C201.964 31.384 201.568 31.488 201.216 31.696C200.864 31.896 200.584 32.18 200.376 32.548C200.168 32.916 200.064 33.348 200.064 33.844C200.064 34.332 200.168 34.764 200.376 35.14C200.584 35.508 200.864 35.796 201.216 36.004C201.568 36.204 201.964 36.304 202.404 36.304ZM204.78 37V35.104L204.864 33.832L204.744 32.56V28.096H205.596V37H204.78Z" fill="#D9D9D9"/>
<rect x="8.5" y="8.5" width="349" height="48" rx="14.5" stroke="#964C96" shape-rendering="crispEdges"/>
</g>
<defs>
<filter id="filter0_d_7039_23277" x="0" y="0" width="366" height="65" filterUnits="userSpaceOnUse" color-interpolation-filters="sRGB">
<feFlood flood-opacity="0" result="BackgroundImageFix"/>
<feColorMatrix in="SourceAlpha" type="matrix" values="0 0 0 0 0 0 0 0 0 0 0 0 0 0 0 0 0 0 127 0" result="hardAlpha"/>
<feOffset/>
<feGaussianBlur stdDeviation="4"/>
<feComposite in2="hardAlpha" operator="out"/>
<feColorMatrix type="matrix" values="0 0 0 0 1 0 0 0 0 1 0 0 0 0 1 0 0 0 0.5 0"/>
<feBlend mode="normal" in2="BackgroundImageFix" result="effect1_dropShadow_7039_23277"/>
<feBlend mode="normal" in="SourceGraphic" in2="effect1_dropShadow_7039_23277" result="shape"/>
</filter>
</defs>
</svg>
